<?xml version="1.0" standalone="no"?>
<!DOCTYPE svg PUBLIC "-//W3C//DTD SVG 20010904//EN"
 "http://www.w3.org/TR/2001/REC-SVG-20010904/DTD/svg10.dtd">
<svg version="1.0" xmlns="http://www.w3.org/2000/svg"
 width="900.000000pt" height="512.000000pt" viewBox="0 0 900.000000 512.000000"
 preserveAspectRatio="xMidYMid meet">

<g transform="translate(0.000000,512.000000) scale(0.100000,-0.100000)"
fill="#000000" stroke="none">
<path d="M2055 4186 c-17 -7 -44 -29 -62 -49 -82 -94 -63 -231 41 -292 l43
-25 2424 0 2424 0 37 23 c107 65 128 199 45 294 -60 68 144 63 -2509 63 -1972
-1 -2419 -3 -2443 -14z"/>
<path d="M2055 2736 c-66 -29 -115 -104 -115 -177 0 -72 64 -161 130 -180 23
-6 839 -9 2451 -7 l2415 3 36 24 c100 69 115 196 35 288 -60 68 141 63 -2509
63 -1971 -1 -2418 -3 -2443 -14z"/>
<path d="M2034 1274 c-105 -68 -123 -197 -41 -291 60 -68 -141 -63 2507 -63
2648 0 2447 -5 2507 63 82 94 63 231 -41 292 l-43 25 -2424 0 -2425 0 -40 -26z"/>
</g>
</svg>
